<?xml version="1.0" encoding="UTF-8" standalone="no"?>
<!-- Created with Inkscape (http://www.inkscape.org/) -->

<svg
   xmlns:dc="http://purl.org/dc/elements/1.1/"
   xmlns:cc="http://creativecommons.org/ns#"
   xmlns:rdf="http://www.w3.org/1999/02/22-rdf-syntax-ns#"
   xmlns:svg="http://www.w3.org/2000/svg"
   xmlns="http://www.w3.org/2000/svg"
   version="1.1"
   width="1824.1226"
   height="576.61249"
   id="svg2">
  <defs
     id="defs4" />
  <metadata
     id="metadata7">
    <rdf:RDF>
      <cc:Work
         rdf:about="">
        <dc:format>image/svg+xml</dc:format>
        <dc:type
           rdf:resource="http://purl.org/dc/dcmitype/StillImage" />
        <dc:title></dc:title>
      </cc:Work>
    </rdf:RDF>
  </metadata>
  <g
     transform="translate(-95.65625,-122.43098)"
     id="layer1">
    <rect
       width="1227.5375"
       height="494.97473"
       rx="40"
       ry="40"
       x="398.1915"
       y="123.93098"
       id="rect4051"
       style="fill:#a7d68f;fill-opacity:1;stroke:#000000;stroke-width:3;stroke-linecap:round;stroke-miterlimit:4;stroke-opacity:1;stroke-dasharray:none;stroke-dashoffset:0" />
    <path
       d="M 940.89601,370.71124 C 865.94261,490.9194 865.94261,490.9194 865.94261,490.9194"
       id="path4077"
       style="fill:none;stroke:#000000;stroke-width:3;stroke-linecap:butt;stroke-linejoin:miter;stroke-miterlimit:4;stroke-opacity:1;stroke-dasharray:none" />
    <g
       id="g3981">
      <path
         d="m 232.27411,207.17995 68.14436,65.01666 -89.70065,33.46081 z"
         id="path3757"
         style="fill:#ffff99;fill-opacity:1;stroke:#000000;stroke-width:3;stroke-linecap:butt;stroke-linejoin:miter;stroke-miterlimit:4;stroke-opacity:1;stroke-dasharray:none" />
      <path
         d="m 102.15625,207.40675 c -2.769999,-0.002 -5,2.23 -5,5 l 0,318.25 c 0,2.77 2.23,5 5,5 l 192.84375,0 c 2.77,0 5,-2.23 5,-5 l 0,-259.65625 c 0,2.77 -2.23,5 -5,5 l -58.5625,0 c -2.77,0 -5,-2.23 -5,-5 1.63186,-8.12208 6.01316,-59.77921 1.17994,-63.49284 z"
         id="rect2985"
         style="fill:#ffff99;fill-opacity:1;stroke:#000000;stroke-width:3;stroke-linecap:round;stroke-miterlimit:4;stroke-opacity:1;stroke-dasharray:none;stroke-dashoffset:0" />
      <path
         d="m 117.99999,237.98768 96,0"
         id="path3788"
         style="fill:none;stroke:#000000;stroke-width:3;stroke-linecap:butt;stroke-linejoin:miter;stroke-miterlimit:4;stroke-opacity:1;stroke-dasharray:none" />
      <path
         d="m 117.99999,264.68769 96,0"
         id="path3790"
         style="fill:none;stroke:#000000;stroke-width:3;stroke-linecap:butt;stroke-linejoin:miter;stroke-miterlimit:4;stroke-opacity:1;stroke-dasharray:none" />
      <path
         d="m 117.99999,291.3877 105.5122,0"
         id="path3792"
         style="fill:none;stroke:#000000;stroke-width:3;stroke-linecap:butt;stroke-linejoin:miter;stroke-miterlimit:4;stroke-opacity:1;stroke-dasharray:none" />
      <path
         d="m 117.99999,318.08766 161,0"
         id="path3794"
         style="fill:none;stroke:#000000;stroke-width:3;stroke-linecap:butt;stroke-linejoin:miter;stroke-miterlimit:4;stroke-opacity:1;stroke-dasharray:none" />
      <path
         d="m 117.99999,344.78767 161,0"
         id="path3796"
         style="fill:none;stroke:#000000;stroke-width:3;stroke-linecap:butt;stroke-linejoin:miter;stroke-miterlimit:4;stroke-opacity:1;stroke-dasharray:none" />
      <path
         d="m 117.99999,371.48768 161,0"
         id="path3798"
         style="fill:none;stroke:#000000;stroke-width:3;stroke-linecap:butt;stroke-linejoin:miter;stroke-miterlimit:4;stroke-opacity:1;stroke-dasharray:none" />
      <path
         d="m 117.99999,398.18769 161,0"
         id="path3800"
         style="fill:none;stroke:#000000;stroke-width:3;stroke-linecap:butt;stroke-linejoin:miter;stroke-miterlimit:4;stroke-opacity:1;stroke-dasharray:none" />
      <path
         d="m 117.99999,424.8877 161,0"
         id="path3802"
         style="fill:none;stroke:#000000;stroke-width:3;stroke-linecap:butt;stroke-linejoin:miter;stroke-miterlimit:4;stroke-opacity:1;stroke-dasharray:none" />
      <path
         d="m 117.99999,451.58766 161,0"
         id="path3804"
         style="fill:none;stroke:#000000;stroke-width:3;stroke-linecap:butt;stroke-linejoin:miter;stroke-miterlimit:4;stroke-opacity:1;stroke-dasharray:none" />
      <path
         d="m 117.99999,478.28767 161,0"
         id="path3806"
         style="fill:none;stroke:#000000;stroke-width:3;stroke-linecap:butt;stroke-linejoin:miter;stroke-miterlimit:4;stroke-opacity:1;stroke-dasharray:none" />
      <path
         d="m 117.99999,504.98768 161,0"
         id="path3808"
         style="fill:none;stroke:#000000;stroke-width:3;stroke-linecap:butt;stroke-linejoin:miter;stroke-miterlimit:4;stroke-opacity:1;stroke-dasharray:none" />
    </g>
    <g
       transform="translate(1617.8603,0)"
       id="g3996">
      <path
         d="m 232.27411,207.17995 68.14436,65.01666 -89.70065,33.46081 z"
         id="path3998"
         style="fill:#ffff99;fill-opacity:1;stroke:#000000;stroke-width:3;stroke-linecap:butt;stroke-linejoin:miter;stroke-miterlimit:4;stroke-opacity:1;stroke-dasharray:none" />
      <path
         d="m 102.15625,207.40675 c -2.769999,-0.002 -5,2.23 -5,5 l 0,318.25 c 0,2.77 2.23,5 5,5 l 192.84375,0 c 2.77,0 5,-2.23 5,-5 l 0,-259.65625 c 0,2.77 -2.23,5 -5,5 l -58.5625,0 c -2.77,0 -5,-2.23 -5,-5 1.63186,-8.12208 6.01316,-59.77921 1.17994,-63.49284 z"
         id="path4000"
         style="fill:#ffff99;fill-opacity:1;stroke:#000000;stroke-width:3;stroke-linecap:round;stroke-miterlimit:4;stroke-opacity:1;stroke-dasharray:none;stroke-dashoffset:0" />
      <path
         d="m 117.99999,237.98768 96,0"
         id="path4002"
         style="fill:none;stroke:#000000;stroke-width:3;stroke-linecap:butt;stroke-linejoin:miter;stroke-miterlimit:4;stroke-opacity:1;stroke-dasharray:none" />
      <path
         d="m 117.99999,264.68769 96,0"
         id="path4004"
         style="fill:none;stroke:#000000;stroke-width:3;stroke-linecap:butt;stroke-linejoin:miter;stroke-miterlimit:4;stroke-opacity:1;stroke-dasharray:none" />
      <path
         d="m 117.99999,291.3877 105.5122,0"
         id="path4006"
         style="fill:none;stroke:#000000;stroke-width:3;stroke-linecap:butt;stroke-linejoin:miter;stroke-miterlimit:4;stroke-opacity:1;stroke-dasharray:none" />
      <path
         d="m 117.99999,318.08766 161,0"
         id="path4008"
         style="fill:none;stroke:#000000;stroke-width:3;stroke-linecap:butt;stroke-linejoin:miter;stroke-miterlimit:4;stroke-opacity:1;stroke-dasharray:none" />
      <path
         d="m 117.99999,344.78767 161,0"
         id="path4010"
         style="fill:none;stroke:#000000;stroke-width:3;stroke-linecap:butt;stroke-linejoin:miter;stroke-miterlimit:4;stroke-opacity:1;stroke-dasharray:none" />
      <path
         d="m 117.99999,371.48768 161,0"
         id="path4012"
         style="fill:none;stroke:#000000;stroke-width:3;stroke-linecap:butt;stroke-linejoin:miter;stroke-miterlimit:4;stroke-opacity:1;stroke-dasharray:none" />
      <path
         d="m 117.99999,398.18769 161,0"
         id="path4014"
         style="fill:none;stroke:#000000;stroke-width:3;stroke-linecap:butt;stroke-linejoin:miter;stroke-miterlimit:4;stroke-opacity:1;stroke-dasharray:none" />
      <path
         d="m 117.99999,424.8877 161,0"
         id="path4016"
         style="fill:none;stroke:#000000;stroke-width:3;stroke-linecap:butt;stroke-linejoin:miter;stroke-miterlimit:4;stroke-opacity:1;stroke-dasharray:none" />
      <path
         d="m 117.99999,451.58766 161,0"
         id="path4018"
         style="fill:none;stroke:#000000;stroke-width:3;stroke-linecap:butt;stroke-linejoin:miter;stroke-miterlimit:4;stroke-opacity:1;stroke-dasharray:none" />
      <path
         d="m 117.99999,478.28767 161,0"
         id="path4020"
         style="fill:none;stroke:#000000;stroke-width:3;stroke-linecap:butt;stroke-linejoin:miter;stroke-miterlimit:4;stroke-opacity:1;stroke-dasharray:none" />
      <path
         d="m 117.99999,504.98768 161,0"
         id="path4022"
         style="fill:none;stroke:#000000;stroke-width:3;stroke-linecap:butt;stroke-linejoin:miter;stroke-miterlimit:4;stroke-opacity:1;stroke-dasharray:none" />
    </g>
    <path
       d="M 631.35997,254.74573 C 556.40665,374.95389 556.40665,374.95389 556.40665,374.95389"
       id="path3857"
       style="fill:none;stroke:#000000;stroke-width:3;stroke-linecap:butt;stroke-linejoin:miter;stroke-miterlimit:4;stroke-opacity:1;stroke-dasharray:none" />
    <path
       d="m 623.93535,254.74573 c 74.95332,120.20816 74.95332,120.20816 74.95332,120.20816"
       id="path3859"
       style="fill:none;stroke:#000000;stroke-width:3;stroke-linecap:butt;stroke-linejoin:miter;stroke-miterlimit:4;stroke-opacity:1;stroke-dasharray:none" />
    <path
       d="m 623.66816,226.46146 a 24.04163,24.04163 0 1 1 -48.08326,0 24.04163,24.04163 0 1 1 48.08326,0 z"
       transform="translate(28.021168,28.284271)"
       id="path3855"
       style="fill:#ffff99;fill-opacity:1;stroke:#000000;stroke-width:3;stroke-linecap:round;stroke-miterlimit:4;stroke-opacity:1;stroke-dasharray:none;stroke-dashoffset:0" />
    <path
       d="M 562.59384,370.71124 C 487.64052,490.9194 487.64052,490.9194 487.64052,490.9194"
       id="path3861"
       style="fill:none;stroke:#000000;stroke-width:3;stroke-linecap:butt;stroke-linejoin:miter;stroke-miterlimit:4;stroke-opacity:1;stroke-dasharray:none" />
    <path
       d="M 557.64407,370.71124 C 632.59739,490.9194 632.59739,490.9194 632.59739,490.9194"
       id="path3863"
       style="fill:none;stroke:#000000;stroke-width:3;stroke-linecap:butt;stroke-linejoin:miter;stroke-miterlimit:4;stroke-opacity:1;stroke-dasharray:none" />
    <path
       d="m 623.66816,226.46146 a 24.04163,24.04163 0 1 1 -48.08326,0 24.04163,24.04163 0 1 1 48.08326,0 z"
       transform="translate(-39.507566,144.24978)"
       id="path3865"
       style="fill:#ffff99;fill-opacity:1;stroke:#000000;stroke-width:3;stroke-linecap:round;stroke-miterlimit:4;stroke-opacity:1;stroke-dasharray:none;stroke-dashoffset:0" />
    <path
       d="m 623.66816,226.46146 a 24.04163,24.04163 0 1 1 -48.08326,0 24.04163,24.04163 0 1 1 48.08326,0 z"
       transform="translate(95.549844,144.24978)"
       id="path3871"
       style="fill:#ffff99;fill-opacity:1;stroke:#000000;stroke-width:3;stroke-linecap:round;stroke-miterlimit:4;stroke-opacity:1;stroke-dasharray:none;stroke-dashoffset:0" />
    <path
       d="m 623.66816,226.46146 a 24.04163,24.04163 0 1 1 -48.08326,0 24.04163,24.04163 0 1 1 48.08326,0 z"
       transform="translate(-109.51112,261.62951)"
       id="path3877"
       style="fill:#ffff99;fill-opacity:1;stroke:#000000;stroke-width:3;stroke-linecap:round;stroke-miterlimit:4;stroke-opacity:1;stroke-dasharray:none;stroke-dashoffset:0" />
    <path
       d="m 623.66816,226.46146 a 24.04163,24.04163 0 1 1 -48.08326,0 24.04163,24.04163 0 1 1 48.08326,0 z"
       transform="translate(30.496022,261.62951)"
       id="path3883"
       style="fill:#ffff99;fill-opacity:1;stroke:#000000;stroke-width:3;stroke-linecap:round;stroke-miterlimit:4;stroke-opacity:1;stroke-dasharray:none;stroke-dashoffset:0" />
    <path
       d="m 1001.5304,254.74573 c 74.9533,120.20816 74.9533,120.20816 74.9533,120.20816"
       id="path3914"
       style="fill:none;stroke:#000000;stroke-width:3;stroke-linecap:butt;stroke-linejoin:miter;stroke-miterlimit:4;stroke-opacity:1;stroke-dasharray:none" />
    <path
       d="M 1008.955,254.74573 C 934.0017,374.95389 934.0017,374.95389 934.0017,374.95389"
       id="path3916"
       style="fill:none;stroke:#000000;stroke-width:3;stroke-linecap:butt;stroke-linejoin:miter;stroke-miterlimit:4;stroke-opacity:1;stroke-dasharray:none" />
    <path
       d="m 623.66816,226.46146 a 24.04163,24.04163 0 1 1 -48.08326,0 24.04163,24.04163 0 1 1 48.08326,0 z"
       transform="matrix(-1,0,0,1,1468.044,261.62951)"
       id="path4079"
       style="fill:#ffff99;fill-opacity:1;stroke:#000000;stroke-width:3;stroke-linecap:round;stroke-miterlimit:4;stroke-opacity:1;stroke-dasharray:none;stroke-dashoffset:0" />
    <path
       d="m 623.66816,226.46146 a 24.04163,24.04163 0 1 1 -48.08326,0 24.04163,24.04163 0 1 1 48.08326,0 z"
       transform="matrix(-1,0,0,1,1604.8692,28.284271)"
       id="path3918"
       style="fill:#ffff99;fill-opacity:1;stroke:#000000;stroke-width:3;stroke-linecap:round;stroke-miterlimit:4;stroke-opacity:1;stroke-dasharray:none;stroke-dashoffset:0" />
    <path
       d="m 1070.2965,370.71124 c 74.9533,120.20816 74.9533,120.20816 74.9533,120.20816"
       id="path3920"
       style="fill:none;stroke:#000000;stroke-width:3;stroke-linecap:butt;stroke-linejoin:miter;stroke-miterlimit:4;stroke-opacity:1;stroke-dasharray:none" />
    <path
       d="M 1075.2463,370.71124 C 1000.2929,490.9194 1000.2929,490.9194 1000.2929,490.9194"
       id="path3922"
       style="fill:none;stroke:#000000;stroke-width:3;stroke-linecap:butt;stroke-linejoin:miter;stroke-miterlimit:4;stroke-opacity:1;stroke-dasharray:none" />
    <path
       d="m 623.66816,226.46146 a 24.04163,24.04163 0 1 1 -48.08326,0 24.04163,24.04163 0 1 1 48.08326,0 z"
       transform="matrix(-1,0,0,1,1672.3979,144.24978)"
       id="path3924"
       style="fill:#ffff99;fill-opacity:1;stroke:#000000;stroke-width:3;stroke-linecap:round;stroke-miterlimit:4;stroke-opacity:1;stroke-dasharray:none;stroke-dashoffset:0" />
    <path
       d="m 623.66816,226.46146 a 24.04163,24.04163 0 1 1 -48.08326,0 24.04163,24.04163 0 1 1 48.08326,0 z"
       transform="matrix(-1,0,0,1,1537.3405,144.24978)"
       id="path3926"
       style="fill:#ffff99;fill-opacity:1;stroke:#000000;stroke-width:3;stroke-linecap:round;stroke-miterlimit:4;stroke-opacity:1;stroke-dasharray:none;stroke-dashoffset:0" />
    <path
       d="m 623.66816,226.46146 a 24.04163,24.04163 0 1 1 -48.08326,0 24.04163,24.04163 0 1 1 48.08326,0 z"
       transform="matrix(-1,0,0,1,1742.4015,261.62951)"
       id="path3928"
       style="fill:#ffff99;fill-opacity:1;stroke:#000000;stroke-width:3;stroke-linecap:round;stroke-miterlimit:4;stroke-opacity:1;stroke-dasharray:none;stroke-dashoffset:0" />
    <path
       d="m 623.66816,226.46146 a 24.04163,24.04163 0 1 1 -48.08326,0 24.04163,24.04163 0 1 1 48.08326,0 z"
       transform="matrix(-1,0,0,1,1602.3943,261.62951)"
       id="path3930"
       style="fill:#ffff99;fill-opacity:1;stroke:#000000;stroke-width:3;stroke-linecap:round;stroke-miterlimit:4;stroke-opacity:1;stroke-dasharray:none;stroke-dashoffset:0" />
    <path
       d="m 1419.0769,254.74573 c -74.9533,120.20816 -74.9533,120.20816 -74.9533,120.20816"
       id="path3934"
       style="fill:none;stroke:#000000;stroke-width:3;stroke-linecap:butt;stroke-linejoin:miter;stroke-miterlimit:4;stroke-opacity:1;stroke-dasharray:none" />
    <path
       d="M 1482.5397,370.71124 C 1557.493,490.9194 1557.493,490.9194 1557.493,490.9194"
       id="path4064"
       style="fill:none;stroke:#000000;stroke-width:3;stroke-linecap:butt;stroke-linejoin:miter;stroke-miterlimit:4;stroke-opacity:1;stroke-dasharray:none" />
    <path
       d="m 1411.6523,254.74573 c 74.9533,120.20816 74.9533,120.20816 74.9533,120.20816"
       id="path3936"
       style="fill:none;stroke:#000000;stroke-width:3;stroke-linecap:butt;stroke-linejoin:miter;stroke-miterlimit:4;stroke-opacity:1;stroke-dasharray:none" />
    <path
       d="m 623.66816,226.46146 a 24.04163,24.04163 0 1 1 -48.08326,0 24.04163,24.04163 0 1 1 48.08326,0 z"
       transform="translate(815.73807,28.284271)"
       id="path3938"
       style="fill:#ffff99;fill-opacity:1;stroke:#000000;stroke-width:3;stroke-linecap:round;stroke-miterlimit:4;stroke-opacity:1;stroke-dasharray:none;stroke-dashoffset:0" />
    <path
       d="M 1350.3107,370.71124 C 1275.3574,490.9194 1275.3574,490.9194 1275.3574,490.9194"
       id="path3940"
       style="fill:none;stroke:#000000;stroke-width:3;stroke-linecap:butt;stroke-linejoin:miter;stroke-miterlimit:4;stroke-opacity:1;stroke-dasharray:none" />
    <path
       d="m 1345.361,370.71124 c 74.9533,120.20816 74.9533,120.20816 74.9533,120.20816"
       id="path3942"
       style="fill:none;stroke:#000000;stroke-width:3;stroke-linecap:butt;stroke-linejoin:miter;stroke-miterlimit:4;stroke-opacity:1;stroke-dasharray:none" />
    <path
       d="m 623.66816,226.46146 a 24.04163,24.04163 0 1 1 -48.08326,0 24.04163,24.04163 0 1 1 48.08326,0 z"
       transform="translate(748.20933,144.24978)"
       id="path3944"
       style="fill:#ffff99;fill-opacity:1;stroke:#000000;stroke-width:3;stroke-linecap:round;stroke-miterlimit:4;stroke-opacity:1;stroke-dasharray:none;stroke-dashoffset:0" />
    <path
       d="m 623.66816,226.46146 a 24.04163,24.04163 0 1 1 -48.08326,0 24.04163,24.04163 0 1 1 48.08326,0 z"
       transform="translate(955.39164,261.62951)"
       id="path4066"
       style="fill:#ffff99;fill-opacity:1;stroke:#000000;stroke-width:3;stroke-linecap:round;stroke-miterlimit:4;stroke-opacity:1;stroke-dasharray:none;stroke-dashoffset:0" />
    <path
       d="m 623.66816,226.46146 a 24.04163,24.04163 0 1 1 -48.08326,0 24.04163,24.04163 0 1 1 48.08326,0 z"
       transform="translate(883.26675,144.24978)"
       id="path3946"
       style="fill:#ffff99;fill-opacity:1;stroke:#000000;stroke-width:3;stroke-linecap:round;stroke-miterlimit:4;stroke-opacity:1;stroke-dasharray:none;stroke-dashoffset:0" />
    <path
       d="m 623.66816,226.46146 a 24.04163,24.04163 0 1 1 -48.08326,0 24.04163,24.04163 0 1 1 48.08326,0 z"
       transform="translate(678.20578,261.62951)"
       id="path3948"
       style="fill:#ffff99;fill-opacity:1;stroke:#000000;stroke-width:3;stroke-linecap:round;stroke-miterlimit:4;stroke-opacity:1;stroke-dasharray:none;stroke-dashoffset:0" />
    <path
       d="m 623.66816,226.46146 a 24.04163,24.04163 0 1 1 -48.08326,0 24.04163,24.04163 0 1 1 48.08326,0 z"
       transform="translate(818.21292,261.62951)"
       id="path3950"
       style="fill:#ffff99;fill-opacity:1;stroke:#000000;stroke-width:3;stroke-linecap:round;stroke-miterlimit:4;stroke-opacity:1;stroke-dasharray:none;stroke-dashoffset:0" />
    <text
       x="335.43433"
       y="425.71283"
       id="text3952"
       xml:space="preserve"
       style="font-size:183.87713623px;font-style:normal;font-variant:normal;font-weight:normal;font-stretch:normal;text-align:start;line-height:125%;letter-spacing:0px;word-spacing:0px;text-anchor:start;fill:#006600;fill-opacity:1;stroke:none;font-family:Nimbus Sans L;-inkscape-font-specification:Nimbus Sans L"><tspan
         x="335.43433"
         y="425.71283"
         id="tspan3954">⇝</tspan></text>
    <text
       x="737.07098"
       y="425.71283"
       id="text3956"
       xml:space="preserve"
       style="font-size:183.87713623px;font-style:normal;font-variant:normal;font-weight:normal;font-stretch:normal;text-align:start;line-height:125%;letter-spacing:0px;word-spacing:0px;text-anchor:start;fill:#006600;fill-opacity:1;stroke:none;font-family:Nimbus Sans L;-inkscape-font-specification:Nimbus Sans L"><tspan
         x="737.07098"
         y="425.71283"
         id="tspan3958">⇝</tspan></text>
    <text
       x="1131.6366"
       y="425.71283"
       id="text3960"
       xml:space="preserve"
       style="font-size:183.87713623px;font-style:normal;font-variant:normal;font-weight:normal;font-stretch:normal;text-align:start;line-height:125%;letter-spacing:0px;word-spacing:0px;text-anchor:start;fill:#006600;fill-opacity:1;stroke:none;font-family:Nimbus Sans L;-inkscape-font-specification:Nimbus Sans L"><tspan
         x="1131.6366"
         y="425.71283"
         id="tspan3962">⇝</tspan></text>
    <text
       x="1555.9006"
       y="425.71283"
       id="text3964"
       xml:space="preserve"
       style="font-size:183.87713623px;font-style:normal;font-variant:normal;font-weight:normal;font-stretch:normal;text-align:start;line-height:125%;letter-spacing:0px;word-spacing:0px;text-anchor:start;fill:#006600;fill-opacity:1;stroke:none;font-family:Nimbus Sans L;-inkscape-font-specification:Nimbus Sans L"><tspan
         x="1555.9006"
         y="425.71283"
         id="tspan3966">⇝</tspan></text>
    <text
       x="117.8055"
       y="684.80249"
       id="text4081"
       xml:space="preserve"
       style="font-size:65.32565308px;font-style:normal;font-variant:normal;font-weight:bold;font-stretch:normal;text-align:start;line-height:125%;letter-spacing:0px;word-spacing:0px;text-anchor:start;fill:#000000;fill-opacity:1;stroke:none;font-family:Nimbus Sans L;-inkscape-font-specification:Sans Bold"><tspan
         x="117.8055"
         y="684.80249"
         id="tspan4083">input</tspan></text>
    <text
       x="875.32196"
       y="684.80249"
       id="text4097"
       xml:space="preserve"
       style="font-size:65.32565308px;font-style:normal;font-variant:normal;font-weight:bold;font-stretch:normal;text-align:start;line-height:125%;letter-spacing:0px;word-spacing:0px;text-anchor:start;fill:#000000;fill-opacity:1;stroke:none;font-family:Nimbus Sans L;-inkscape-font-specification:Sans Bold"><tspan
         x="875.32196"
         y="684.80249"
         id="tspan4099">compiler</tspan></text>
    <text
       x="1714.8933"
       y="684.80249"
       id="text4101"
       xml:space="preserve"
       style="font-size:65.32565308px;font-style:normal;font-variant:normal;font-weight:bold;font-stretch:normal;text-align:start;line-height:125%;letter-spacing:0px;word-spacing:0px;text-anchor:start;fill:#000000;fill-opacity:1;stroke:none;font-family:Nimbus Sans L;-inkscape-font-specification:Sans Bold"><tspan
         x="1714.8933"
         y="684.80249"
         id="tspan4103">output</tspan></text>
  </g>
</svg>
